<mxfile host="Electron" modified="2024-03-25T19:58:14.304Z" agent="Mozilla/5.0 (Windows NT 10.0; Win64; x64) AppleWebKit/537.36 (KHTML, like Gecko) draw.io/24.1.0 Chrome/120.0.6099.109 Electron/28.1.0 Safari/537.36" etag="tGJPglrAPcy4d7jU_jIH" version="24.1.0" type="device">
  <diagram name="Page-1" id="WYESFLSUSy7haNbvUYAo">
    <mxGraphModel dx="913" dy="547" grid="1" gridSize="10" guides="1" tooltips="1" connect="1" arrows="1" fold="1" page="1" pageScale="1" pageWidth="827" pageHeight="1169" math="0" shadow="0">
      <root>
        <mxCell id="0" />
        <mxCell id="1" parent="0" />
        <mxCell id="nhka3xBEIN15aNx--xRV-1" value="Choisir forme signal" style="rounded=1;whiteSpace=wrap;html=1;" parent="1" vertex="1">
          <mxGeometry x="32" y="170" width="120" height="60" as="geometry" />
        </mxCell>
        <mxCell id="nhka3xBEIN15aNx--xRV-2" value="Choisir enveloppe ADSR" style="rounded=1;whiteSpace=wrap;html=1;" parent="1" vertex="1">
          <mxGeometry x="192" y="170" width="120" height="60" as="geometry" />
        </mxCell>
        <mxCell id="nhka3xBEIN15aNx--xRV-5" value="Filtrage" style="rounded=1;whiteSpace=wrap;html=1;" parent="1" vertex="1">
          <mxGeometry x="352" y="170" width="120" height="60" as="geometry" />
        </mxCell>
        <mxCell id="nhka3xBEIN15aNx--xRV-6" value="Voir le signal et son spectre en temps rÃ©el" style="rounded=1;whiteSpace=wrap;html=1;" parent="1" vertex="1">
          <mxGeometry x="512" y="170" width="120" height="60" as="geometry" />
        </mxCell>
        <mxCell id="nhka3xBEIN15aNx--xRV-7" value="" style="endArrow=none;html=1;rounded=0;" parent="1" edge="1">
          <mxGeometry width="50" height="50" relative="1" as="geometry">
            <mxPoint x="35.5" y="120" as="sourcePoint" />
            <mxPoint x="795.5" y="120" as="targetPoint" />
          </mxGeometry>
        </mxCell>
        <mxCell id="nhka3xBEIN15aNx--xRV-8" value="" style="endArrow=classic;html=1;rounded=0;" parent="1" source="nhka3xBEIN15aNx--xRV-3" edge="1">
          <mxGeometry width="50" height="50" relative="1" as="geometry">
            <mxPoint x="411.44" y="40" as="sourcePoint" />
            <mxPoint x="411.44" y="120" as="targetPoint" />
          </mxGeometry>
        </mxCell>
        <mxCell id="nhka3xBEIN15aNx--xRV-9" value="" style="endArrow=classic;html=1;rounded=0;" parent="1" target="nhka3xBEIN15aNx--xRV-1" edge="1">
          <mxGeometry width="50" height="50" relative="1" as="geometry">
            <mxPoint x="92" y="120" as="sourcePoint" />
            <mxPoint x="392" y="80" as="targetPoint" />
          </mxGeometry>
        </mxCell>
        <mxCell id="nhka3xBEIN15aNx--xRV-10" value="" style="endArrow=classic;html=1;rounded=0;entryX=0.5;entryY=0;entryDx=0;entryDy=0;" parent="1" target="nhka3xBEIN15aNx--xRV-2" edge="1">
          <mxGeometry width="50" height="50" relative="1" as="geometry">
            <mxPoint x="252" y="120" as="sourcePoint" />
            <mxPoint x="392" y="80" as="targetPoint" />
          </mxGeometry>
        </mxCell>
        <mxCell id="nhka3xBEIN15aNx--xRV-11" value="" style="endArrow=classic;html=1;rounded=0;entryX=0.5;entryY=0;entryDx=0;entryDy=0;" parent="1" target="nhka3xBEIN15aNx--xRV-5" edge="1">
          <mxGeometry width="50" height="50" relative="1" as="geometry">
            <mxPoint x="412" y="120" as="sourcePoint" />
            <mxPoint x="392" y="80" as="targetPoint" />
          </mxGeometry>
        </mxCell>
        <mxCell id="nhka3xBEIN15aNx--xRV-12" value="" style="endArrow=classic;html=1;rounded=0;entryX=0.5;entryY=0;entryDx=0;entryDy=0;" parent="1" target="nhka3xBEIN15aNx--xRV-6" edge="1">
          <mxGeometry width="50" height="50" relative="1" as="geometry">
            <mxPoint x="572" y="120" as="sourcePoint" />
            <mxPoint x="392" y="80" as="targetPoint" />
          </mxGeometry>
        </mxCell>
        <mxCell id="nhka3xBEIN15aNx--xRV-13" value="" style="endArrow=none;html=1;rounded=0;" parent="1" edge="1">
          <mxGeometry width="50" height="50" relative="1" as="geometry">
            <mxPoint x="32" y="280" as="sourcePoint" />
            <mxPoint x="795.5" y="280" as="targetPoint" />
          </mxGeometry>
        </mxCell>
        <mxCell id="nhka3xBEIN15aNx--xRV-14" value="" style="endArrow=classic;html=1;rounded=0;exitX=0.5;exitY=1;exitDx=0;exitDy=0;" parent="1" source="nhka3xBEIN15aNx--xRV-1" edge="1">
          <mxGeometry width="50" height="50" relative="1" as="geometry">
            <mxPoint x="342" y="260" as="sourcePoint" />
            <mxPoint x="92" y="280" as="targetPoint" />
          </mxGeometry>
        </mxCell>
        <mxCell id="nhka3xBEIN15aNx--xRV-15" value="" style="endArrow=classic;html=1;rounded=0;exitX=0.5;exitY=1;exitDx=0;exitDy=0;" parent="1" source="nhka3xBEIN15aNx--xRV-2" edge="1">
          <mxGeometry width="50" height="50" relative="1" as="geometry">
            <mxPoint x="342" y="260" as="sourcePoint" />
            <mxPoint x="252" y="280" as="targetPoint" />
          </mxGeometry>
        </mxCell>
        <mxCell id="nhka3xBEIN15aNx--xRV-16" value="" style="endArrow=classic;html=1;rounded=0;exitX=0.5;exitY=1;exitDx=0;exitDy=0;" parent="1" source="nhka3xBEIN15aNx--xRV-5" edge="1">
          <mxGeometry width="50" height="50" relative="1" as="geometry">
            <mxPoint x="342" y="260" as="sourcePoint" />
            <mxPoint x="412" y="280" as="targetPoint" />
          </mxGeometry>
        </mxCell>
        <mxCell id="nhka3xBEIN15aNx--xRV-17" value="" style="endArrow=classic;html=1;rounded=0;exitX=0.5;exitY=1;exitDx=0;exitDy=0;" parent="1" source="nhka3xBEIN15aNx--xRV-6" edge="1">
          <mxGeometry width="50" height="50" relative="1" as="geometry">
            <mxPoint x="342" y="260" as="sourcePoint" />
            <mxPoint x="572" y="280" as="targetPoint" />
          </mxGeometry>
        </mxCell>
        <mxCell id="nhka3xBEIN15aNx--xRV-18" value="" style="rhombus;whiteSpace=wrap;html=1;" parent="1" vertex="1">
          <mxGeometry x="397" y="340" width="30" height="40" as="geometry" />
        </mxCell>
        <mxCell id="nhka3xBEIN15aNx--xRV-19" value="" style="endArrow=classic;html=1;rounded=0;entryX=0.5;entryY=0;entryDx=0;entryDy=0;" parent="1" target="nhka3xBEIN15aNx--xRV-18" edge="1">
          <mxGeometry width="50" height="50" relative="1" as="geometry">
            <mxPoint x="412" y="280" as="sourcePoint" />
            <mxPoint x="472" y="210" as="targetPoint" />
          </mxGeometry>
        </mxCell>
        <mxCell id="nhka3xBEIN15aNx--xRV-20" value="" style="endArrow=classic;html=1;rounded=0;exitX=1;exitY=0.5;exitDx=0;exitDy=0;" parent="1" source="nhka3xBEIN15aNx--xRV-18" edge="1">
          <mxGeometry width="50" height="50" relative="1" as="geometry">
            <mxPoint x="432" y="360" as="sourcePoint" />
            <mxPoint x="412" y="510" as="targetPoint" />
            <Array as="points">
              <mxPoint x="762" y="360" />
              <mxPoint x="762" y="510" />
            </Array>
          </mxGeometry>
        </mxCell>
        <mxCell id="nhka3xBEIN15aNx--xRV-21" value="Sauvegarde forme du signal" style="rounded=1;whiteSpace=wrap;html=1;" parent="1" vertex="1">
          <mxGeometry x="352" y="430" width="120" height="60" as="geometry" />
        </mxCell>
        <mxCell id="nhka3xBEIN15aNx--xRV-22" value="" style="endArrow=classic;html=1;rounded=0;exitX=0.5;exitY=1;exitDx=0;exitDy=0;entryX=0.5;entryY=0;entryDx=0;entryDy=0;" parent="1" source="nhka3xBEIN15aNx--xRV-18" target="nhka3xBEIN15aNx--xRV-21" edge="1">
          <mxGeometry width="50" height="50" relative="1" as="geometry">
            <mxPoint x="422" y="420" as="sourcePoint" />
            <mxPoint x="472" y="370" as="targetPoint" />
          </mxGeometry>
        </mxCell>
        <mxCell id="nhka3xBEIN15aNx--xRV-23" value="[sauvegarde ok]" style="text;html=1;align=center;verticalAlign=middle;whiteSpace=wrap;rounded=0;" parent="1" vertex="1">
          <mxGeometry x="412" y="390" width="100" height="30" as="geometry" />
        </mxCell>
        <mxCell id="nhka3xBEIN15aNx--xRV-24" value="[else]" style="text;html=1;align=center;verticalAlign=middle;whiteSpace=wrap;rounded=0;" parent="1" vertex="1">
          <mxGeometry x="422" y="330" width="60" height="30" as="geometry" />
        </mxCell>
        <mxCell id="nhka3xBEIN15aNx--xRV-25" value="" style="endArrow=classic;html=1;rounded=0;exitX=0.5;exitY=1;exitDx=0;exitDy=0;" parent="1" source="nhka3xBEIN15aNx--xRV-21" edge="1">
          <mxGeometry width="50" height="50" relative="1" as="geometry">
            <mxPoint x="422" y="420" as="sourcePoint" />
            <mxPoint x="412" y="560" as="targetPoint" />
          </mxGeometry>
        </mxCell>
        <mxCell id="nhka3xBEIN15aNx--xRV-28" value="" style="ellipse;whiteSpace=wrap;html=1;aspect=fixed;" parent="1" vertex="1">
          <mxGeometry x="402" y="560" width="20" height="20" as="geometry" />
        </mxCell>
        <mxCell id="nhka3xBEIN15aNx--xRV-29" value="" style="shape=waypoint;sketch=0;fillStyle=solid;size=6;pointerEvents=1;points=[];fillColor=none;resizable=0;rotatable=0;perimeter=centerPerimeter;snapToPoint=1;" parent="1" vertex="1">
          <mxGeometry x="402" y="560" width="20" height="20" as="geometry" />
        </mxCell>
        <mxCell id="SUo5BT6KF2sT2MBGDAil-1" value="Jouer le signal sonore" style="rounded=1;whiteSpace=wrap;html=1;" vertex="1" parent="1">
          <mxGeometry x="669" y="170" width="120" height="60" as="geometry" />
        </mxCell>
        <mxCell id="SUo5BT6KF2sT2MBGDAil-2" value="" style="endArrow=classic;html=1;rounded=0;entryX=0.5;entryY=0;entryDx=0;entryDy=0;" edge="1" parent="1" target="SUo5BT6KF2sT2MBGDAil-1">
          <mxGeometry width="50" height="50" relative="1" as="geometry">
            <mxPoint x="729" y="120" as="sourcePoint" />
            <mxPoint x="549" y="80" as="targetPoint" />
          </mxGeometry>
        </mxCell>
        <mxCell id="SUo5BT6KF2sT2MBGDAil-3" value="" style="endArrow=classic;html=1;rounded=0;exitX=0.5;exitY=1;exitDx=0;exitDy=0;" edge="1" parent="1" source="SUo5BT6KF2sT2MBGDAil-1">
          <mxGeometry width="50" height="50" relative="1" as="geometry">
            <mxPoint x="499" y="260" as="sourcePoint" />
            <mxPoint x="729" y="280" as="targetPoint" />
          </mxGeometry>
        </mxCell>
        <mxCell id="SUo5BT6KF2sT2MBGDAil-4" value="" style="endArrow=classic;html=1;rounded=0;" edge="1" parent="1" target="nhka3xBEIN15aNx--xRV-3">
          <mxGeometry width="50" height="50" relative="1" as="geometry">
            <mxPoint x="411.44" y="40" as="sourcePoint" />
            <mxPoint x="411.44" y="120" as="targetPoint" />
          </mxGeometry>
        </mxCell>
        <mxCell id="nhka3xBEIN15aNx--xRV-3" value="" style="shape=waypoint;sketch=0;fillStyle=solid;size=6;pointerEvents=1;points=[];fillColor=none;resizable=0;rotatable=0;perimeter=centerPerimeter;snapToPoint=1;" parent="1" vertex="1">
          <mxGeometry x="400.5" y="30" width="20" height="20" as="geometry" />
        </mxCell>
      </root>
    </mxGraphModel>
  </diagram>
</mxfile>
